<svg xmlns:dc="http://purl.org/dc/elements/1.1/" xmlns:cc="http://creativecommons.org/ns#" xmlns:rdf="http://www.w3.org/1999/02/22-rdf-syntax-ns#" xmlns:svg="http://www.w3.org/2000/svg" xmlns="http://www.w3.org/2000/svg" xmlns:sodipodi="http://sodipodi.sourceforge.net/DTD/sodipodi-0.dtd" xmlns:inkscape="http://www.inkscape.org/namespaces/inkscape" version="1.1" x="0px" y="0px" viewBox="0 0 100 125"><g transform="translate(0,-952.36218)"><g transform="matrix(0.70710678,-0.70710679,0.70710679,0.70710678,5.4527085,1022.8587)"><path d="M 17.007874,34.015751 C 7.5826771,34.015751 0,26.433073 0,17.007875 0,7.6181109 7.5826771,0 17.007874,0 l 19.984252,0 c 9.425196,0 17.007873,7.6181109 17.007873,17.007875 0,0.531497 -0.46063,1.02756 -0.992126,1.02756 -0.531496,0 -1.027559,-0.496063 -0.992126,-1.02756 0,-8.3267719 -6.69685,-14.9881898 -15.023621,-14.9881898 l -19.984252,0 c -8.3267718,0 -15.0236221,6.6614179 -15.0236221,14.9881898 0,8.326773 6.6968503,15.023624 15.0236221,15.023624 l 19.984252,0 c 0.531496,-0.03543 1.027559,0.46063 1.027559,0.992126 0,0.531496 -0.496063,0.992126 -1.027559,0.992126 l -19.984252,0 z m 37.984251,0 c -9.389763,0 -17.007874,-7.582678 -17.007874,-17.007876 0,-0.531496 0.496063,-0.992126 1.02756,-0.992126 0.531496,0 0.992125,0.46063 0.992125,0.992126 0,8.326773 6.661418,15.023624 14.988189,15.023624 l 20.019685,0 c 8.326772,0 14.988189,-6.696851 14.988189,-15.023624 0,-8.3267719 -6.661417,-14.9881898 -14.988189,-14.9881898 l -20.019685,0 c -0.531496,0 -0.992126,-0.46063 -0.992126,-0.9921261 C 53.999999,0.49606303 54.460629,0 54.992125,0 L 75.01181,0 c 9.389764,0 16.972441,7.6181109 16.972441,17.007875 0,9.425198 -7.582677,17.007876 -16.972441,17.007876 l -20.019685,0 z" style="" fill="#000000" fill-opacity="1" fill-rule="nonzero" stroke="none"/></g></g></svg>