<svg xmlns:dc="http://purl.org/dc/elements/1.1/" xmlns:cc="http://creativecommons.org/ns#" xmlns:rdf="http://www.w3.org/1999/02/22-rdf-syntax-ns#" xmlns:svg="http://www.w3.org/2000/svg" xmlns="http://www.w3.org/2000/svg" xmlns:sodipodi="http://sodipodi.sourceforge.net/DTD/sodipodi-0.dtd" xmlns:inkscape="http://www.inkscape.org/namespaces/inkscape" version="1.1" x="0px" y="0px" viewBox="0 0 100 125"><g transform="translate(0,-952.36218)"><path style="text-indent:0;text-transform:none;direction:ltr;block-progression:tb;baseline-shift:baseline;color:#000000;enable-background:accumulate;" d="m 50,959.37795 c -7.524886,0 -14.269936,3.87595 -19.125,9.40453 -4.855064,5.52857 -7.875,12.73094 -7.875,19.59015 0,16.42917 14.020392,35.93867 26.125,56.48967 a 1.0001,0.99991664 0 0 0 1.75,0 C 62.979609,1024.3113 77.000002,1004.8018 77,988.37263 77,981.51343 73.98006,974.31105 69.125,968.78248 64.26994,963.2539 57.524887,959.37795 50,959.37795 z m 0,1.99963 c 6.834509,0 13.069913,3.53017 17.625,8.71716 4.555087,5.18698 7.375,12.00962 7.375,18.27789 2e-6,14.90157 -13.06307,33.91317 -25,54.02137 -11.936931,-20.1082 -25,-39.1198 -25,-54.02137 0,-6.26827 2.81991,-13.09091 7.375,-18.27789 4.55509,-5.18699 10.790491,-8.71716 17.625,-8.71716 z m 0,7.99854 c -7.720142,0 -14,6.27871 -14,13.99743 0,7.71871 6.279858,13.99743 14,13.99743 7.720142,0 14,-6.27872 14,-13.99743 0,-7.71872 -6.279858,-13.99743 -14,-13.99743 z m 0,2.03087 c 6.639261,0 12,5.32852 12,11.96656 0,6.63803 -5.360739,11.9978 -12,11.9978 -6.639261,0 -12,-5.35977 -12,-11.9978 0,-6.63804 5.360739,-11.96656 12,-11.96656 z" fill="#000000" fill-opacity="1" stroke="none" marker="none" visibility="visible" display="inline" overflow="visible"/></g></svg>